# xmcd
#
# Track frame offsets:
#	150
#	12092
#	28413
#	42152
#	58222
#	72075
#	84835
#	98194
#	113076
#	130707
#	146322
#	162799
#	177486
#	191984
#	207887
#	221489
#	237502
#	252126
#	265696
#	282048
#	296332
#
# Disc length: 4168 seconds
#
# Revision: 1
# Processed by: cddbd v1.5.2PL0 Copyright (c) Steve Scherf et al.
# Submitted via: dBpowerAMP V4.0
#
DISCID=2c104615
DTITLE=Various Artist - Hott Country Volume 258 Can
DYEAR=2017
DGENRE=Country
TTITLE0=Thomas Rhett - Unforgettable
TTITLE1=Zac Brown Band - Roots
TTITLE2=Hunter Brothers - Born And Raised
TTITLE3=Dan and Shay - Road Trippin'
TTITLE4=Chad Brownlee - Out Of The Blue
TTITLE5=Florida Georgia Line - Smooth
TTITLE6=Dean Brody ft. Alan Doyle - Soggy Bottom Summers
TTITLE7=Darius Rucker - For The First Time
TTITLE8=Chase Rice - Three Chords and The Truth
TTITLE9=Levon - Ms. Marianne
TTITLE10=Joe Nichols - Never Gets Old
TTITLE11=High Valley - Dear Life
TTITLE12=Michael Ray - Get To You
TTITLE13=Sara Evans - Marquee Sign
TTITLE14=Chris Stapleton - Broken Halos
TTITLE15=Danielle Bradbery - Sway
TTITLE16=Brandon Lay - Speakers, Bleachers And Preachers
TTITLE17=Waterloo Revival - What Guy Wouldn't
TTITLE18=Russell Dickerson - Yours
TTITLE19=Alee - Bad Habit
TTITLE20=Camille Rae - I Need Me
EXTD=
EXTT0=
EXTT1=
EXTT2=
EXTT3=
EXTT4=
EXTT5=
EXTT6=
EXTT7=
EXTT8=
EXTT9=
EXTT10=
EXTT11=
EXTT12=
EXTT13=
EXTT14=
EXTT15=
EXTT16=
EXTT17=
EXTT18=
EXTT19=
EXTT20=
PLAYORDER=
